<?xml version="1.0" standalone="no"?>
<!DOCTYPE svg PUBLIC "-//W3C//DTD SVG 1.1//EN" "http://www.w3.org/Graphics/SVG/1.1/DTD/svg11.dtd" >
<svg xmlns="http://www.w3.org/2000/svg" xmlns:xlink="http://www.w3.org/1999/xlink" version="1.1">
<metadata></metadata>
<defs>
<font id="higashiome_gothic_c_regularRg" horiz-adv-x="1240" vert-adv-y="2048" >
<font-face units-per-em="2048" ascent="1760" descent="-288" />
<missing-glyph horiz-adv-x="540" />
<glyph horiz-adv-x="0" vert-adv-y="0" />
<glyph unicode="&#xd;" horiz-adv-x="682" />
<glyph unicode=" " horiz-adv-x="540" vert-adv-y="2000" />
<glyph unicode="!" horiz-adv-x="648" vert-adv-y="2000" d="M230 1460h188l-20 -1054h-148zM238 0v246h172v-246h-172z" />
<glyph unicode="&#x22;" horiz-adv-x="800" vert-adv-y="2000" d="M140 1540h160l-20 -494h-120zM500 1540h160l-20 -494h-120z" />
<glyph unicode="#" horiz-adv-x="1356" vert-adv-y="2000" d="M100 384v128h246l84 476h-228v128h250l62 344h146l-60 -344h292l62 344h146l-60 -344h216v-128h-240l-84 -476h222v-128h-244l-68 -384h-148l68 384h-292l-68 -384h-148l68 384h-222zM492 512h294l84 476h-294z" />
<glyph unicode="$" horiz-adv-x="1130" vert-adv-y="2000" d="M110 1086q0 148 99 238t287 104v202h128v-202q190 -10 350 -56v-142q-170 60 -350 68v-492q222 -58 309 -157t87 -249q0 -160 -102 -256t-294 -112v-202h-128v202q-192 8 -366 78v146q176 -86 366 -94v536q-386 104 -386 388zM260 1086q0 -178 236 -248v458 q-236 -20 -236 -210zM624 164q242 30 242 236q0 100 -55 162t-187 102v-500z" />
<glyph unicode="%" horiz-adv-x="1640" vert-adv-y="2000" d="M80 1096q0 182 88 283t248 101t249 -101t89 -283t-89 -282t-249 -100t-248 100t-88 282zM234 1096q0 -262 182 -262q184 0 184 262q0 264 -184 264q-182 0 -182 -264zM338 0l802 1460h162l-802 -1460h-162zM886 364q0 182 89 282t249 100t248 -100t88 -282t-88 -283 t-248 -101t-249 101t-89 283zM1040 364q0 -264 184 -264q182 0 182 264q0 262 -182 262q-184 0 -184 -262z" />
<glyph unicode="&#x26;" horiz-adv-x="1434" vert-adv-y="2000" d="M110 340q0 112 82 218t282 238l-24 26q-110 114 -155 198t-45 166q0 132 103 213t281 81q182 0 279 -76t97 -210q0 -110 -70 -203t-250 -213l358 -378v436h150v-596l226 -240h-192l-134 142q-252 -162 -520 -162q-230 0 -349 93t-119 267zM270 346q0 -114 81 -176 t233 -62q122 0 215 32t197 108l-430 452q-162 -106 -229 -189t-67 -165zM408 1186q0 -64 34 -122t156 -188q162 108 213 171t51 139q0 80 -58 124t-170 44q-106 0 -166 -46t-60 -122z" />
<glyph unicode="'" horiz-adv-x="472" vert-adv-y="2000" d="M150 1540h172l-20 -494h-132z" />
<glyph unicode="(" horiz-adv-x="770" vert-adv-y="2000" d="M140 630q0 268 100 502t288 408h152q-386 -364 -386 -910t386 -910h-152q-188 174 -288 408t-100 502z" />
<glyph unicode=")" horiz-adv-x="770" vert-adv-y="2000" d="M90 -280q386 364 386 910t-386 910h152q188 -174 288 -408t100 -502t-100 -502t-288 -408h-152z" />
<glyph unicode="*" horiz-adv-x="1052" vert-adv-y="2000" d="M100 1144l38 122l328 -112l-4 346h128l-4 -346l328 112l38 -122l-330 -104l208 -276l-104 -76l-200 282l-200 -282l-104 76l208 276z" />
<glyph unicode="+" horiz-adv-x="1468" vert-adv-y="2000" d="M160 516v128h508v516h132v-516h508v-128h-508v-516h-132v516h-508z" />
<glyph unicode="," horiz-adv-x="608" vert-adv-y="2000" d="M120 -220l146 494h202l-200 -494h-148z" />
<glyph unicode="-" horiz-adv-x="932" vert-adv-y="2000" d="M160 510v126h612v-126h-612z" />
<glyph unicode="." horiz-adv-x="568" vert-adv-y="2000" d="M190 0v274h188v-274h-188z" />
<glyph unicode="/" horiz-adv-x="1014" vert-adv-y="2000" d="M70 -80l688 1540h156l-688 -1540h-156z" />
<glyph unicode="0" vert-adv-y="2000" d="M94 730q0 402 138 576t388 174t388 -174t138 -576t-138 -576t-388 -174t-388 174t-138 576zM254 730q0 -326 91 -473t275 -147t275 147t91 473t-91 473t-275 147t-275 -147t-91 -473z" />
<glyph unicode="1" vert-adv-y="2000" d="M220 950v176l414 334h160v-1460h-160v1282h-4z" />
<glyph unicode="2" vert-adv-y="2000" d="M166 0v134q426 352 578 549t152 371q0 142 -78 216t-228 74q-192 0 -394 -116v156q186 96 414 96q214 0 332 -109t118 -305t-142 -396t-532 -532v-4h680v-134h-900z" />
<glyph unicode="3" vert-adv-y="2000" d="M170 1326v134h876v-134l-478 -470v-4h60q212 0 325 -102t113 -296q0 -228 -135 -351t-385 -123q-204 0 -362 76v154q168 -96 362 -96q176 0 268 86t92 254q0 142 -95 211t-303 69h-146v124l478 464v4h-670z" />
<glyph unicode="4" vert-adv-y="2000" d="M30 340v130l700 990h158v-990h248v-130h-248v-340h-158v340h-700zM194 470h536v756h-4l-532 -752v-4z" />
<glyph unicode="5" vert-adv-y="2000" d="M190 56v152q182 -94 356 -94q186 0 282 93t96 273q0 154 -82 235t-236 81q-158 0 -262 -92h-140l44 756h776v-134h-632l-28 -472h4q118 70 266 70q214 0 332 -116t118 -328q0 -244 -137 -372t-401 -128q-192 0 -356 76z" />
<glyph unicode="6" vert-adv-y="2000" d="M114 640q0 422 155 631t441 209q162 0 294 -46v-142q-138 54 -294 54q-184 0 -299 -139t-129 -403l4 -2q124 172 388 172q216 0 344 -131t128 -349q0 -240 -139 -377t-373 -137q-520 0 -520 660zM280 506q0 -150 88 -271t266 -121q166 0 259 98t93 282q0 162 -95 259 t-251 97q-158 0 -259 -97t-101 -247z" />
<glyph unicode="7" vert-adv-y="2000" d="M156 1326v134h940v-134q-346 -568 -578 -1326h-168q230 724 592 1322v4h-786z" />
<glyph unicode="8" vert-adv-y="2000" d="M94 394q0 128 86 228t246 150v4q-134 50 -207 142t-73 212q0 158 127 254t347 96t347 -96t127 -254q0 -242 -280 -342v-4q332 -98 332 -390q0 -190 -140 -302t-386 -112t-386 112t-140 302zM246 400q0 -136 100 -214t274 -78t272 79t98 213q0 242 -376 314 q-182 -36 -275 -118t-93 -196zM300 1116q0 -100 84 -173t236 -103q154 32 239 105t85 171q0 110 -85 173t-239 63q-152 0 -236 -63t-84 -173z" />
<glyph unicode="9" vert-adv-y="2000" d="M96 986q0 226 142 360t372 134q520 0 520 -640q0 -446 -152 -653t-444 -207q-160 0 -314 46v142q150 -54 314 -54q194 0 308 137t118 407l-4 2q-120 -174 -386 -174q-218 0 -346 134t-128 366zM256 986q0 -174 95 -275t253 -101q160 0 259 100t99 264q0 60 -19 121 t-58 119t-110 95t-165 37q-162 0 -258 -95t-96 -265z" />
<glyph unicode=":" horiz-adv-x="728" vert-adv-y="2000" d="M270 0v274h188v-274h-188zM270 780v274h188v-274h-188z" />
<glyph unicode=";" horiz-adv-x="768" vert-adv-y="2000" d="M160 -220l146 494h202l-200 -494h-148zM296 780v274h188v-274h-188z" />
<glyph unicode="&#x3c;" horiz-adv-x="1334" vert-adv-y="2000" d="M130 498v164l1014 464v-140l-914 -404v-4l914 -404v-140z" />
<glyph unicode="=" horiz-adv-x="1508" vert-adv-y="2000" d="M180 286v128h1148v-128h-1148zM180 746v128h1148v-128h-1148z" />
<glyph unicode="&#x3e;" horiz-adv-x="1334" vert-adv-y="2000" d="M190 34v140l914 404v4l-914 404v140l1014 -464v-164z" />
<glyph unicode="?" horiz-adv-x="1246" vert-adv-y="2000" d="M170 1270v146q228 64 460 64q234 0 360 -87t126 -239q0 -72 -19 -128t-62 -102t-75 -72t-92 -66q-64 -44 -96 -68t-75 -71t-62 -104t-19 -129h-160q0 88 22 157t72 124t85 83t103 74q74 50 109 79t69 85t34 124q0 204 -340 204q-210 0 -440 -74zM450 0v246h174v-246h-174 z" />
<glyph unicode="@" horiz-adv-x="1648" vert-adv-y="2000" d="M80 520q0 326 211 535t533 209q328 0 536 -206t208 -538q0 -228 -112 -410h-436l-4 116h-2q-98 -132 -264 -132q-148 0 -239 112t-91 314q0 204 89 315t241 111q162 0 264 -130h4v114h156v-700h210q64 128 64 290q0 280 -172 452t-452 172q-276 0 -450 -174t-174 -450 t174 -450t450 -174q212 0 370 112l72 -96q-188 -136 -442 -136q-320 0 -532 208t-212 536zM578 520q0 -142 59 -219t157 -77q100 0 158 73t58 205v36q0 132 -58 205t-158 73q-102 0 -159 -77t-57 -219z" />
<glyph unicode="A" horiz-adv-x="1328" vert-adv-y="2000" d="M60 0l514 1460h180l514 -1460h-172l-140 426h-590l-140 -426h-166zM408 554h506l-250 762h-4z" />
<glyph unicode="B" horiz-adv-x="1196" vert-adv-y="2000" d="M170 12v1436q176 32 352 32q528 0 528 -354q0 -122 -81 -211t-221 -119v-4q174 -26 271 -128t97 -244q0 -440 -574 -440q-186 0 -372 32zM330 128q98 -18 212 -18q416 0 416 324q0 288 -496 288h-132v-594zM330 850h132q436 0 436 256q0 124 -90 184t-286 60 q-102 0 -192 -18v-482z" />
<glyph unicode="C" horiz-adv-x="1226" vert-adv-y="2000" d="M80 730q0 354 167 552t463 198q182 0 346 -50v-142q-166 58 -332 58q-226 0 -354 -162t-128 -454q0 -290 133 -453t355 -163q170 0 336 58v-142q-172 -50 -350 -50q-288 0 -462 197t-174 553z" />
<glyph unicode="D" horiz-adv-x="1316" vert-adv-y="2000" d="M170 12v1436q180 32 354 32q712 0 712 -730q0 -770 -712 -770q-178 0 -354 32zM330 132q90 -18 194 -18q290 0 425 150t135 486q0 306 -137 451t-423 145q-104 0 -194 -18v-1196z" />
<glyph unicode="E" horiz-adv-x="1174" vert-adv-y="2000" d="M170 0v1460h854v-134h-694v-476h654v-128h-654v-588h694v-134h-854z" />
<glyph unicode="F" horiz-adv-x="1144" vert-adv-y="2000" d="M170 0v1460h834v-134h-674v-496h634v-128h-634v-702h-160z" />
<glyph unicode="G" horiz-adv-x="1374" vert-adv-y="2000" d="M80 730q0 348 192 549t522 201q188 0 354 -46v-140q-174 56 -340 56q-266 0 -415 -163t-149 -457q0 -286 145 -453t385 -167q148 0 286 50v562h-472v128h626v-782q-210 -88 -454 -88q-300 0 -490 203t-190 547z" />
<glyph unicode="H" horiz-adv-x="1352" vert-adv-y="2000" d="M170 0v1460h160v-610h692v610h160v-1460h-160v722h-692v-722h-160z" />
<glyph unicode="I" horiz-adv-x="632" vert-adv-y="2000" d="M230 0v1460h172v-1460h-172z" />
<glyph unicode="J" horiz-adv-x="1058" vert-adv-y="2000" d="M80 40v148q180 -74 354 -74q158 0 232 94t74 312v940h168v-980q0 -260 -116 -380t-358 -120q-192 0 -354 60z" />
<glyph unicode="K" horiz-adv-x="1226" vert-adv-y="2000" d="M170 0v1460h160v-650h4l610 650h192l-662 -700l682 -760h-192l-630 712h-4v-712h-160z" />
<glyph unicode="L" horiz-adv-x="1164" vert-adv-y="2000" d="M170 0v1460h168v-1324h706v-136h-874z" />
<glyph unicode="M" horiz-adv-x="1632" vert-adv-y="2000" d="M170 0v1460h162l480 -880h4l478 880h168v-1460h-160v1192h-4l-410 -758h-150l-410 758h-4v-1192h-154z" />
<glyph unicode="N" horiz-adv-x="1372" vert-adv-y="2000" d="M170 0v1460h164l708 -1200h4v1200h156v-1460h-164l-708 1200h-4v-1200h-156z" />
<glyph unicode="O" horiz-adv-x="1428" vert-adv-y="2000" d="M80 730q0 356 169 553t465 197t465 -197t169 -553t-169 -553t-465 -197t-465 197t-169 553zM244 730q0 -304 121 -460t349 -156t349 156t121 460t-121 460t-349 156t-349 -156t-121 -460z" />
<glyph unicode="P" horiz-adv-x="1200" vert-adv-y="2000" d="M170 0v1448q208 32 406 32q272 0 413 -115t141 -329q0 -232 -142 -352t-412 -120q-132 0 -246 12v-576h-160zM330 708q116 -16 234 -16q198 0 303 86t105 246t-103 243t-305 83q-110 0 -234 -20v-622z" />
<glyph unicode="Q" horiz-adv-x="1490" vert-adv-y="2000" d="M80 730q0 356 169 553t463 197q296 0 465 -197t169 -553q0 -248 -89 -420t-253 -252v-4q152 -36 284 -132t212 -222h-190q-106 158 -237 219t-361 61q-294 0 -463 197t-169 553zM242 730q0 -304 121 -460t349 -156t350 156t122 460t-122 460t-350 156t-349 -156 t-121 -460z" />
<glyph unicode="R" vert-adv-y="2000" d="M170 0v1450q174 30 374 30q280 0 423 -103t143 -293q0 -152 -82 -254t-232 -140v-4q90 -48 178 -260l176 -426h-166l-172 422q-60 144 -113 179t-209 35h-160v-636h-160zM330 764h160q238 0 350 77t112 229q0 280 -422 280q-106 0 -200 -18v-568z" />
<glyph unicode="S" horiz-adv-x="1106" vert-adv-y="2000" d="M120 1124q0 168 108 262t302 94q218 0 406 -84v-152q-194 106 -394 106q-120 0 -193 -56t-73 -170q0 -196 262 -284q248 -82 348 -188t100 -272q0 -196 -118 -298t-346 -102q-208 0 -380 96v158q170 -120 368 -120q316 0 316 266q0 108 -68 180t-224 126 q-414 140 -414 438z" />
<glyph unicode="T" horiz-adv-x="1268" vert-adv-y="2000" d="M120 1324v136h1028v-136h-434v-1324h-160v1324h-434z" />
<glyph unicode="U" horiz-adv-x="1312" vert-adv-y="2000" d="M150 500v960h162v-966q0 -194 85 -286t261 -92t262 92t86 286v966h156v-960q0 -258 -130 -389t-376 -131t-376 131t-130 389z" />
<glyph unicode="V" horiz-adv-x="1328" vert-adv-y="2000" d="M60 1460h172l432 -1302h4l434 1302h166l-514 -1460h-180z" />
<glyph unicode="W" horiz-adv-x="1760" vert-adv-y="2000" d="M90 1460h164l254 -1288h4l266 1288h208l268 -1288h4l254 1288h158l-320 -1460h-200l-268 1288h-4l-268 -1288h-200z" />
<glyph unicode="X" horiz-adv-x="1300" vert-adv-y="2000" d="M110 0l438 740l-428 720h186l344 -608h4l346 608h180l-428 -720l438 -740h-188l-352 628h-4l-354 -628h-182z" />
<glyph unicode="Y" horiz-adv-x="1300" vert-adv-y="2000" d="M60 1460h188l402 -708h4l404 708h182l-506 -842v-618h-168v618z" />
<glyph unicode="Z" horiz-adv-x="1232" vert-adv-y="2000" d="M150 0v134l746 1188v4h-746v134h932v-134l-746 -1188v-4h746v-134h-932z" />
<glyph unicode="[" horiz-adv-x="940" vert-adv-y="2000" d="M230 -280v1820h540v-120h-392v-1580h392v-120h-540z" />
<glyph unicode="\" horiz-adv-x="1320" vert-adv-y="2000" d="M70 1460h188l402 -708h4l404 708h182l-454 -754h358v-106h-410v-190h410v-106h-410v-304h-168v304h-410v106h410v190h-410v106h358z" />
<glyph unicode="]" horiz-adv-x="940" vert-adv-y="2000" d="M170 -160h392v1580h-392v120h540v-1820h-540v120z" />
<glyph unicode="^" horiz-adv-x="1268" vert-adv-y="2000" d="M80 560l458 900h192l458 -900h-166l-388 798l-388 -798h-166z" />
<glyph unicode="_" horiz-adv-x="1124" vert-adv-y="2000" d="M-4 -160h1132v-120h-1132v120z" />
<glyph unicode="`" horiz-adv-x="544" vert-adv-y="2000" d="M30 1620h202l232 -506h-136z" />
<glyph unicode="a" horiz-adv-x="1068" vert-adv-y="2000" d="M100 294q0 166 132 266t422 100h120v54q0 122 -56 171t-198 49q-168 0 -362 -76v138q180 64 362 64q230 0 319 -84t89 -302v-674h-144l-4 178h-4q-120 -198 -368 -198q-136 0 -222 86t-86 228zM254 306q0 -90 51 -145t135 -55q144 0 239 96t95 254v94h-120 q-198 0 -299 -64t-101 -180z" />
<glyph unicode="b" horiz-adv-x="1156" vert-adv-y="2000" d="M160 0v1500h154v-596h4q128 156 328 156q194 0 307 -141t113 -399q0 -250 -117 -395t-303 -145q-204 0 -336 168h-4l-2 -148h-144zM314 366q0 -104 92 -185t208 -81q142 0 221 106t79 314q0 420 -300 420q-118 0 -209 -82t-91 -184v-308z" />
<glyph unicode="c" horiz-adv-x="986" vert-adv-y="2000" d="M80 520q0 264 123 402t347 138q150 0 286 -36v-134q-130 46 -276 46q-320 0 -320 -416q0 -216 84 -316t256 -100q136 0 266 54v-134q-140 -44 -276 -44q-236 0 -363 137t-127 403z" />
<glyph unicode="d" horiz-adv-x="1156" vert-adv-y="2000" d="M90 520q0 258 113 399t307 141q200 0 328 -156h4v596h154v-1500h-144l-2 148h-4q-132 -168 -336 -168q-186 0 -303 145t-117 395zM242 520q0 -208 79 -314t221 -106q116 0 208 81t92 185v308q0 102 -91 184t-209 82q-300 0 -300 -420z" />
<glyph unicode="e" horiz-adv-x="1050" vert-adv-y="2000" d="M80 520q0 278 123 409t337 131q420 0 420 -526q0 -18 -4 -54h-722q12 -384 362 -384q136 0 296 66v-132q-164 -50 -310 -50q-246 0 -374 135t-128 405zM234 598h576q-6 346 -270 346q-286 0 -306 -346z" />
<glyph unicode="f" horiz-adv-x="1016" vert-adv-y="2000" d="M110 880v120h246v114q0 192 81 279t259 87q90 0 180 -30v-122q-80 32 -154 32q-116 0 -161 -51t-45 -189v-120h340v-120h-340v-880h-160v880h-246z" />
<glyph unicode="g" horiz-adv-x="1126" vert-adv-y="2000" d="M90 534q0 266 111 396t293 130q202 0 332 -168h4l2 148h144v-980q0 -270 -116 -395t-364 -125q-158 0 -292 44v134q140 -58 292 -58q174 0 251 92t77 302v100h-4q-122 -154 -326 -154q-182 0 -293 141t-111 393zM244 534q0 -202 77 -308t213 -106q116 0 203 86t87 206 v232q0 120 -87 208t-203 88q-290 0 -290 -406z" />
<glyph unicode="h" horiz-adv-x="1140" vert-adv-y="2000" d="M160 0v1500h154v-618h4q142 178 336 178q182 0 264 -101t82 -339v-620h-150v594q0 202 -53 271t-183 69q-104 0 -202 -99t-98 -203v-632h-154z" />
<glyph unicode="i" horiz-adv-x="620" vert-adv-y="2000" d="M230 0v1040h160v-1040h-160zM230 1286v214h160v-214h-160z" />
<glyph unicode="j" horiz-adv-x="710" vert-adv-y="2000" d="M-20 -310q218 0 279 55t61 249v1046h160v-1046q0 -262 -97 -348t-403 -86v130zM320 1286v214h160v-214h-160z" />
<glyph unicode="k" horiz-adv-x="1102" vert-adv-y="2000" d="M160 0v1500h152v-924h4l504 464h190l-548 -500l550 -540h-188l-508 504h-4v-504h-152z" />
<glyph unicode="l" horiz-adv-x="620" vert-adv-y="2000" d="M230 0v1500h160v-1500h-160z" />
<glyph unicode="m" horiz-adv-x="1570" vert-adv-y="2000" d="M150 0v1040h148l2 -142h4q114 162 274 162q96 0 155 -43t97 -143h4q114 186 294 186q160 0 231 -92t71 -308v-660h-150v620q0 186 -43 253t-151 67q-74 0 -146 -79t-72 -163v-698h-152v620q0 186 -43 253t-149 67q-74 0 -147 -79t-73 -163v-698h-154z" />
<glyph unicode="n" horiz-adv-x="1130" vert-adv-y="2000" d="M150 0v1040h144l2 -156h4q144 176 344 176q182 0 264 -102t82 -338v-620h-150v600q0 198 -54 269t-182 71q-104 0 -202 -97t-98 -199v-644h-154z" />
<glyph unicode="o" horiz-adv-x="1112" vert-adv-y="2000" d="M80 520q0 256 126 398t350 142t350 -142t126 -398t-126 -398t-350 -142t-350 142t-126 398zM236 520q0 -420 320 -420t320 420t-320 420t-320 -420z" />
<glyph unicode="p" horiz-adv-x="1148" vert-adv-y="2000" d="M150 -440v1480h144l4 -150h4q132 170 336 170q194 0 307 -141t113 -399q0 -250 -117 -395t-303 -145q-206 0 -330 156h-4v-576h-154zM304 378q0 -114 90 -196t210 -82q142 0 221 107t79 313q0 420 -300 420q-122 0 -211 -83t-89 -195v-284z" />
<glyph unicode="q" horiz-adv-x="1148" vert-adv-y="2000" d="M90 520q0 258 113 399t307 141q204 0 336 -170h4l4 150h144v-1480h-154v576h-4q-124 -156 -330 -156q-186 0 -303 145t-117 395zM244 520q0 -206 79 -313t221 -107q120 0 210 82t90 196v284q0 112 -89 195t-211 83q-300 0 -300 -420z" />
<glyph unicode="r" horiz-adv-x="900" vert-adv-y="2000" d="M150 0v1040h152v-232h4q62 106 180 169t264 63h40v-134h-40q-208 0 -324 -108t-116 -306v-492h-160z" />
<glyph unicode="s" horiz-adv-x="994" vert-adv-y="2000" d="M120 774q0 132 99 209t283 77q168 0 336 -54v-128q-166 62 -324 62q-240 0 -240 -154q0 -68 48 -113t174 -73q216 -48 297 -122t81 -212q0 -134 -103 -210t-291 -76q-186 0 -340 66v128q160 -74 328 -74q252 0 252 166q0 72 -51 120t-189 80q-194 46 -277 119t-83 189z " />
<glyph unicode="t" horiz-adv-x="1004" vert-adv-y="2000" d="M100 880v120h224v380h152v-380h378v-120h-378v-546q0 -144 38 -189t146 -45q90 0 166 28v-124q-94 -24 -192 -24q-176 0 -243 73t-67 267v560h-224z" />
<glyph unicode="u" horiz-adv-x="1120" vert-adv-y="2000" d="M140 394v646h150v-626q0 -180 54 -247t172 -67q108 0 204 93t96 203v644h154v-1040h-144l-2 156h-4q-138 -176 -344 -176q-174 0 -255 96t-81 318z" />
<glyph unicode="v" horiz-adv-x="1092" vert-adv-y="2000" d="M70 1040h166l310 -950h4l312 950h160l-372 -1040h-208z" />
<glyph unicode="w" horiz-adv-x="1580" vert-adv-y="2000" d="M90 1040h166l218 -908h4l212 908h206l212 -908h4l218 908h160l-286 -1040h-200l-212 894h-4l-212 -894h-200z" />
<glyph unicode="x" horiz-adv-x="1088" vert-adv-y="2000" d="M100 0l356 528l-346 512h174l260 -414h4l262 414h168l-346 -512l356 -528h-174l-270 430h-4l-272 -430h-168z" />
<glyph unicode="y" horiz-adv-x="1094" vert-adv-y="2000" d="M70 1040h162l300 -856h4l332 856h156l-610 -1480h-156l196 448z" />
<glyph unicode="z" horiz-adv-x="1072" vert-adv-y="2000" d="M150 0v120l588 796v4h-588v120h772v-120l-588 -796v-4h588v-120h-772z" />
<glyph unicode="{" horiz-adv-x="1028" vert-adv-y="2000" d="M120 566v128h88q166 0 166 246v300q0 160 65 230t209 70h200v-120h-134q-108 0 -151 -42t-43 -178v-266q0 -226 -166 -302v-4q166 -76 166 -302v-266q0 -136 43 -178t151 -42h134v-120h-200q-144 0 -209 70t-65 230v300q0 246 -166 246h-88z" />
<glyph unicode="|" horiz-adv-x="688" vert-adv-y="2000" d="M270 -440v2060h148v-2060h-148z" />
<glyph unicode="}" horiz-adv-x="1028" vert-adv-y="2000" d="M180 -160h134q108 0 151 42t43 178v266q0 226 166 302v4q-166 76 -166 302v266q0 136 -43 178t-151 42h-134v120h200q144 0 209 -70t65 -230v-300q0 -246 166 -246h88v-128h-88q-166 0 -166 -246v-300q0 -160 -65 -230t-209 -70h-200v120z" />
<glyph unicode="~" horiz-adv-x="1392" vert-adv-y="2720" d="M110 1292q132 208 342 208q150 0 280 -130q102 -102 208 -102q140 0 250 154l92 -74q-132 -208 -342 -208q-150 0 -280 130q-102 102 -208 102q-140 0 -250 -154z" />
<glyph unicode="&#xa0;" horiz-adv-x="540" vert-adv-y="0" />
<glyph unicode="&#xa1;" horiz-adv-x="648" vert-adv-y="2000" d="M230 -440l20 1074h148l20 -1074h-188zM238 794v246h172v-246h-172z" />
<glyph unicode="&#xa2;" horiz-adv-x="1010" vert-adv-y="2000" d="M80 520q0 498 432 538v322h120v-322q128 -6 238 -34v-136q-124 42 -238 48v-832q126 2 248 54v-134q-136 -42 -248 -44v-340h-120v344q-432 46 -432 536zM240 520q0 -190 65 -289t207 -121v822q-140 -22 -206 -122t-66 -290z" />
<glyph unicode="&#xa3;" horiz-adv-x="1228" vert-adv-y="2000" d="M150 0v134q88 6 151 96t63 236v210h-176v120h176v284q0 190 115 295t329 105q124 0 240 -42v-142q-106 48 -224 48q-300 0 -300 -280v-268h430v-120h-430v-210q0 -112 -41 -200t-107 -128v-4h702v-134h-928z" />
<glyph unicode="&#xa4;" horiz-adv-x="1344" vert-adv-y="2000" d="M120 264l188 186q-96 124 -96 280t96 280l-188 186l86 86l186 -188q124 96 280 96t280 -96l186 188l86 -86l-188 -186q96 -124 96 -280t-96 -280l188 -186l-86 -86l-186 188q-124 -96 -280 -96t-280 96l-186 -188zM346 730q0 -134 95 -230t231 -96t231 96t95 230t-95 230 t-231 96t-231 -96t-95 -230z" />
<glyph unicode="&#xa5;" horiz-adv-x="1320" vert-adv-y="2000" d="M70 1460h188l402 -708h4l404 708h182l-454 -754h358v-106h-410v-190h410v-106h-410v-304h-168v304h-410v106h410v190h-410v106h358z" />
<glyph unicode="&#xa6;" horiz-adv-x="688" vert-adv-y="2000" d="M270 -280v720h148v-720h-148zM270 740v720h148v-720h-148z" />
<glyph unicode="&#xa7;" horiz-adv-x="1040" vert-adv-y="2000" d="M120 602q0 186 160 276q-150 90 -150 272q0 144 108 237t282 93q198 0 354 -72v-142q-164 84 -340 84q-120 0 -189 -55t-69 -145q0 -84 55 -136t195 -80q210 -42 302 -129t92 -227q0 -186 -160 -276q150 -90 150 -272q0 -144 -108 -237t-282 -93q-198 0 -354 72v142 q164 -84 340 -84q120 0 189 55t69 145q0 84 -55 136t-195 80q-210 42 -302 129t-92 227zM250 624q0 -96 64 -153t218 -89q70 -14 110 -28q148 56 148 202q0 96 -64 153t-218 89q-70 14 -110 28q-148 -56 -148 -202z" />
<glyph unicode="&#xa8;" horiz-adv-x="888" vert-adv-y="2000" d="M170 1220v254h148v-254h-148zM570 1220v254h148v-254h-148z" />
<glyph unicode="&#xa9;" horiz-adv-x="1632" vert-adv-y="2000" d="M80 730q0 304 216 520t520 216t520 -216t216 -520t-216 -520t-520 -216t-520 216t-216 520zM186 730q0 -262 185 -446t445 -184t445 184t185 446t-185 446t-445 184t-445 -184t-185 -446zM448 730q0 206 105 320t291 114q124 0 228 -30v-116q-114 38 -212 38 q-126 0 -197 -85t-71 -241q0 -152 74 -239t200 -87q100 0 214 38v-116q-104 -30 -228 -30q-186 0 -295 113t-109 321z" />
<glyph unicode="&#xaa;" horiz-adv-x="1260" vert-adv-y="2000" d="M180 406v98h900v-98h-900zM280 866q0 138 110 217t332 79h94v46q0 96 -43 135t-157 39q-138 0 -292 -60v108q142 50 292 50q184 0 254 -68t70 -242v-538h-118l-2 126h-2q-96 -142 -294 -142q-108 0 -176 68t-68 182zM404 878q0 -72 41 -115t107 -43q118 0 191 74t73 198 v78h-94q-140 0 -229 -47t-89 -145z" />
<glyph unicode="&#xab;" horiz-adv-x="1440" vert-adv-y="2000" d="M130 520v120l534 420v-144l-434 -334v-4l434 -334v-144zM718 520v120l532 420v-144l-434 -334v-4l434 -334v-144z" />
<glyph unicode="&#xac;" horiz-adv-x="1312" vert-adv-y="2000" d="M120 746v128h1012v-568h-140v440h-872z" />
<glyph unicode="&#xad;" horiz-adv-x="932" vert-adv-y="2000" d="M160 514v132h612v-132h-612z" />
<glyph unicode="&#xae;" horiz-adv-x="1632" vert-adv-y="2000" d="M80 730q0 304 216 520t520 216t520 -216t216 -520t-216 -520t-520 -216t-520 216t-216 520zM186 730q0 -262 185 -446t445 -184t445 184t185 446t-185 446t-445 184t-445 -184t-185 -446zM518 306v842q106 16 264 16q366 0 366 -238q0 -84 -52 -144t-146 -82v-2 q62 -28 116 -150l108 -242h-148l-98 232q-36 78 -66 98t-110 20h-94v-350h-140zM658 758h98q252 0 252 156q0 146 -234 146q-56 0 -116 -10v-292z" />
<glyph unicode="&#xaf;" horiz-adv-x="932" vert-adv-y="2000" d="M120 1286v120h692v-120h-692z" />
<glyph unicode="&#xb0;" horiz-adv-x="792" vert-adv-y="2000" d="M90 1174q0 128 89 217t217 89t217 -89t89 -217t-89 -218t-217 -90t-217 90t-89 218zM210 1174q0 -78 54 -133t132 -55t132 55t54 133t-54 132t-132 54t-132 -54t-54 -132z" />
<glyph unicode="&#xb1;" horiz-adv-x="1508" vert-adv-y="2000" d="M180 46h1148v-126h-1148v126zM180 684v126h508v490h132v-490h508v-126h-508v-490h-132v490h-508z" />
<glyph unicode="&#xb2;" horiz-adv-x="760" vert-adv-y="2000" d="M98 584v104q258 216 343 323t85 201q0 154 -164 154q-114 0 -246 -68v116q122 58 260 58q132 0 203 -66t71 -184q0 -112 -81 -224t-305 -308v-2h396v-104h-562z" />
<glyph unicode="&#xb3;" horiz-adv-x="760" vert-adv-y="2000" d="M100 1356v104h542v-104l-280 -256v-2h26q128 0 197 -64t69 -182q0 -280 -314 -280q-122 0 -230 48v112q112 -58 220 -58q204 0 204 176q0 76 -49 118t-191 42h-76v88l272 256v2h-390z" />
<glyph unicode="&#xb4;" horiz-adv-x="540" vert-adv-y="2000" d="M80 1180l226 334h204l-280 -334h-150z" />
<glyph unicode="&#xb5;" horiz-adv-x="1130" vert-adv-y="2000" d="M150 -440v1480h144v-646q0 -160 53 -224t179 -64q120 0 214 109t94 259v566h146v-1040h-140l-2 186h-4q-54 -96 -142 -151t-190 -55q-146 0 -208 80v-500h-144z" />
<glyph unicode="&#xb6;" horiz-adv-x="1260" vert-adv-y="2000" d="M70 1000q0 190 135 325t325 135h560v-1740h-140v1614h-280v-1614h-140v820q-190 0 -325 135t-135 325z" />
<glyph unicode="&#xb7;" horiz-adv-x="568" vert-adv-y="2000" d="M190 440v280h188v-280h-188z" />
<glyph unicode="&#xb8;" horiz-adv-x="820" vert-adv-y="2000" d="M100 -270q96 -50 206 -50q220 0 220 152q0 96 -82 168h144q82 -96 82 -204q0 -104 -85 -170t-265 -66q-114 0 -220 42v128z" />
<glyph unicode="&#xb9;" horiz-adv-x="760" vert-adv-y="2000" d="M106 1128v142l240 190h128v-876h-128v736h-2z" />
<glyph unicode="&#xba;" horiz-adv-x="1260" vert-adv-y="2000" d="M180 406v98h900v-98h-900zM248 1048q0 206 101 319t281 113t281 -113t101 -319t-101 -319t-281 -113t-281 113t-101 319zM376 1048q0 -334 254 -334t254 334t-254 334t-254 -334z" />
<glyph unicode="&#xbb;" horiz-adv-x="1440" vert-adv-y="2000" d="M190 100v144l434 334v4l-434 334v144l532 -420v-120zM776 100v144l434 334v4l-434 334v144l534 -420v-120z" />
<glyph unicode="&#xbc;" horiz-adv-x="1640" vert-adv-y="2000" d="M76 1128v142l238 190h130v-876h-130v736h-2zM288 0l992 1460h144l-992 -1460h-144zM890 194v100l420 582h118v-582h144v-100h-144v-194h-118v194h-420zM1004 294h306v426h-2l-304 -424v-2z" />
<glyph unicode="&#xbd;" horiz-adv-x="1640" vert-adv-y="2000" d="M76 1128v142l238 190h130v-876h-130v736h-2zM214 0l992 1460h144l-992 -1460h-144zM998 0v104q258 216 343 323t85 201q0 154 -164 154q-114 0 -246 -68v116q122 58 260 58q132 0 204 -66t72 -184q0 -112 -81 -223t-307 -309v-2h396v-104h-562z" />
<glyph unicode="&#xbe;" horiz-adv-x="1640" vert-adv-y="2000" d="M96 1356v104h544v-104l-282 -256v-2h28q128 0 197 -64t69 -182q0 -138 -81 -209t-235 -71q-122 0 -230 48v112q112 -58 220 -58q204 0 204 176q0 76 -49 118t-191 42h-76v88l274 256v2h-392zM304 0l992 1460h144l-992 -1460h-144zM890 194v100l420 582h118v-582h144v-100 h-144v-194h-118v194h-420zM1004 294h306v426h-2l-304 -424v-2z" />
<glyph unicode="&#xbf;" horiz-adv-x="1206" vert-adv-y="2000" d="M130 -134q0 72 19 128t61 103t74 73t94 70q60 42 95 71t76 77t61 107t20 131h160q0 -88 -23 -159t-71 -127t-85 -88t-103 -78q-72 -52 -108 -81t-70 -87t-34 -126q0 -204 340 -204q210 0 440 74v-146q-228 -64 -460 -64q-234 0 -360 87t-126 239zM622 794v246h174v-246 h-174z" />
<glyph unicode="&#xc0;" horiz-adv-x="1328" vert-adv-y="2000" d="M60 0l514 1460h180l514 -1460h-172l-140 426h-590l-140 -426h-166zM356 1914h204l226 -334h-150zM408 554h506l-250 762h-4z" />
<glyph unicode="&#xc1;" horiz-adv-x="1328" vert-adv-y="2000" d="M60 0l514 1460h180l514 -1460h-172l-140 426h-590l-140 -426h-166zM408 554h506l-250 762h-4zM542 1580l226 334h204l-280 -334h-150z" />
<glyph unicode="&#xc2;" horiz-adv-x="1328" vert-adv-y="2000" d="M60 0l514 1460h180l514 -1460h-172l-140 426h-590l-140 -426h-166zM280 1580l274 334h220l274 -334h-182l-200 264h-4l-200 -264h-182zM408 554h506l-250 762h-4z" />
<glyph unicode="&#xc3;" horiz-adv-x="1328" vert-adv-y="2000" d="M60 0l514 1460h180l514 -1460h-172l-140 426h-590l-140 -426h-166zM294 1600q0 280 164 280q90 0 226 -90q112 -74 156 -74q68 0 68 144h126q0 -260 -164 -260q-90 0 -228 92q-106 72 -154 72q-68 0 -68 -164h-126zM408 554h506l-250 762h-4z" />
<glyph unicode="&#xc4;" horiz-adv-x="1328" vert-adv-y="2000" d="M60 0l514 1460h180l514 -1460h-172l-140 426h-590l-140 -426h-166zM390 1620v254h148v-254h-148zM408 554h506l-250 762h-4zM790 1620v254h148v-254h-148z" />
<glyph unicode="&#xc5;" horiz-adv-x="1328" vert-adv-y="2000" d="M60 0l514 1460h180l514 -1460h-172l-140 426h-590l-140 -426h-166zM408 554h506l-250 762h-4zM418 1780q0 102 72 174t174 72t174 -72t72 -174t-72 -174t-174 -72t-174 72t-72 174zM510 1780q0 -64 45 -109t109 -45t109 45t45 109t-45 109t-109 45t-109 -45t-45 -109z " />
<glyph unicode="&#xc6;" horiz-adv-x="1616" vert-adv-y="2000" d="M60 0l534 1460h872v-134h-560v-476h520v-128h-520v-588h560v-134h-712v426h-388l-146 -426h-160zM410 554h344v772h-76z" />
<glyph unicode="&#xc7;" horiz-adv-x="1226" vert-adv-y="2000" d="M80 730q0 354 167 552t463 198q182 0 346 -50v-142q-166 58 -332 58q-226 0 -354 -162t-128 -454q0 -290 133 -453t355 -163q170 0 336 58v-142q-130 -38 -248 -46q68 -88 68 -188q0 -104 -85 -170t-265 -66q-114 0 -220 42v128q96 -50 206 -50q220 0 220 152 q0 80 -64 148q-272 14 -435 210t-163 540z" />
<glyph unicode="&#xc8;" horiz-adv-x="1174" vert-adv-y="2000" d="M170 0v1460h854v-134h-694v-476h654v-128h-654v-588h694v-134h-854zM352 1914h204l226 -334h-150z" />
<glyph unicode="&#xc9;" horiz-adv-x="1174" vert-adv-y="2000" d="M170 0v1460h854v-134h-694v-476h654v-128h-654v-588h694v-134h-854zM418 1580l226 334h204l-280 -334h-150z" />
<glyph unicode="&#xca;" horiz-adv-x="1174" vert-adv-y="2000" d="M170 0v1460h854v-134h-694v-476h654v-128h-654v-588h694v-134h-854zM216 1580l274 334h220l274 -334h-182l-200 264h-4l-200 -264h-182z" />
<glyph unicode="&#xcb;" horiz-adv-x="1174" vert-adv-y="2000" d="M170 0v1460h854v-134h-694v-476h654v-128h-654v-588h694v-134h-854zM326 1620v254h148v-254h-148zM726 1620v254h148v-254h-148z" />
<glyph unicode="&#xcc;" horiz-adv-x="634" vert-adv-y="2000" d="M-26 1914h204l226 -334h-150zM232 0v1460h172v-1460h-172z" />
<glyph unicode="&#xcd;" horiz-adv-x="634" vert-adv-y="2000" d="M230 0v1460h172v-1460h-172zM230 1580l226 334h204l-280 -334h-150z" />
<glyph unicode="&#xce;" horiz-adv-x="632" vert-adv-y="2000" d="M-68 1580l274 334h220l274 -334h-182l-200 264h-4l-200 -264h-182zM230 0v1460h172v-1460h-172z" />
<glyph unicode="&#xcf;" horiz-adv-x="636" vert-adv-y="2000" d="M44 1620v254h148v-254h-148zM232 0v1460h172v-1460h-172zM444 1620v254h148v-254h-148z" />
<glyph unicode="&#xd0;" horiz-adv-x="1450" vert-adv-y="2000" d="M70 698v128h234v622q180 32 354 32q712 0 712 -730q0 -770 -712 -770q-178 0 -354 32v686h-234zM464 132q90 -18 194 -18q290 0 425 150t135 486q0 306 -137 451t-423 145q-104 0 -194 -18v-502h366v-128h-366v-566z" />
<glyph unicode="&#xd1;" horiz-adv-x="1372" vert-adv-y="2000" d="M170 0v1460h164l708 -1200h4v1200h156v-1460h-164l-708 1200h-4v-1200h-156zM316 1600q0 280 164 280q92 0 226 -90q112 -74 156 -74q68 0 68 144h126q0 -260 -164 -260q-90 0 -228 92q-106 72 -154 72q-68 0 -68 -164h-126z" />
<glyph unicode="&#xd2;" horiz-adv-x="1428" vert-adv-y="2000" d="M80 730q0 356 169 553t465 197t465 -197t169 -553t-169 -553t-465 -197t-465 197t-169 553zM244 730q0 -304 121 -460t349 -156t349 156t121 460t-121 460t-349 156t-349 -156t-121 -460zM406 1914h204l226 -334h-150z" />
<glyph unicode="&#xd3;" horiz-adv-x="1428" vert-adv-y="2000" d="M80 730q0 356 169 553t465 197t465 -197t169 -553t-169 -553t-465 -197t-465 197t-169 553zM244 730q0 -304 121 -460t349 -156t349 156t121 460t-121 460t-349 156t-349 -156t-121 -460zM592 1580l226 334h204l-280 -334h-150z" />
<glyph unicode="&#xd4;" horiz-adv-x="1428" vert-adv-y="2000" d="M80 730q0 356 169 553t465 197t465 -197t169 -553t-169 -553t-465 -197t-465 197t-169 553zM244 730q0 -304 121 -460t349 -156t349 156t121 460t-121 460t-349 156t-349 -156t-121 -460zM330 1580l274 334h220l274 -334h-182l-200 264h-4l-200 -264h-182z" />
<glyph unicode="&#xd5;" horiz-adv-x="1428" vert-adv-y="2000" d="M80 730q0 356 169 553t465 197t465 -197t169 -553t-169 -553t-465 -197t-465 197t-169 553zM244 730q0 -304 121 -460t349 -156t349 156t121 460t-121 460t-349 156t-349 -156t-121 -460zM344 1600q0 280 164 280q92 0 226 -90q110 -74 156 -74q68 0 68 144h126 q0 -260 -164 -260q-90 0 -228 92q-106 72 -154 72q-68 0 -68 -164h-126z" />
<glyph unicode="&#xd6;" horiz-adv-x="1428" vert-adv-y="2000" d="M80 730q0 356 169 553t465 197t465 -197t169 -553t-169 -553t-465 -197t-465 197t-169 553zM244 730q0 -304 121 -460t349 -156t349 156t121 460t-121 460t-349 156t-349 -156t-121 -460zM440 1620v254h148v-254h-148zM840 1620v254h148v-254h-148z" />
<glyph unicode="&#xd7;" horiz-adv-x="1212" vert-adv-y="2000" d="M90 162l418 418l-418 418l98 98l418 -418l418 418l98 -98l-418 -418l418 -418l-98 -98l-418 418l-418 -418z" />
<glyph unicode="&#xd8;" horiz-adv-x="1448" vert-adv-y="2000" d="M90 730q0 356 169 553t465 197q194 0 340 -90l82 128l116 -76l-90 -142q186 -202 186 -570q0 -356 -169 -553t-465 -197q-194 0 -340 90l-82 -128l-116 76l90 142q-186 202 -186 570zM254 730q0 -286 106 -440l628 982q-106 74 -264 74q-228 0 -349 -156t-121 -460z M460 188q106 -74 264 -74q228 0 349 156t121 460q0 286 -106 440z" />
<glyph unicode="&#xd9;" horiz-adv-x="1312" vert-adv-y="2000" d="M150 500v960h162v-966q0 -194 85 -286t261 -92t262 92t86 286v966h156v-960q0 -258 -130 -389t-376 -131t-376 131t-130 389zM408 1914h204l226 -334h-150z" />
<glyph unicode="&#xda;" horiz-adv-x="1312" vert-adv-y="2000" d="M150 500v960h162v-966q0 -194 85 -286t261 -92t262 92t86 286v966h156v-960q0 -258 -130 -389t-376 -131t-376 131t-130 389zM474 1580l226 334h204l-280 -334h-150z" />
<glyph unicode="&#xdb;" horiz-adv-x="1312" vert-adv-y="2000" d="M150 500v960h162v-966q0 -194 85 -286t261 -92t262 92t86 286v966h156v-960q0 -258 -130 -389t-376 -131t-376 131t-130 389zM272 1580l274 334h220l274 -334h-182l-200 264h-4l-200 -264h-182z" />
<glyph unicode="&#xdc;" horiz-adv-x="1312" vert-adv-y="2000" d="M150 500v960h162v-966q0 -194 85 -286t261 -92t262 92t86 286v966h156v-960q0 -258 -130 -389t-376 -131t-376 131t-130 389zM382 1620v254h148v-254h-148zM782 1620v254h148v-254h-148z" />
<glyph unicode="&#xdd;" horiz-adv-x="1300" vert-adv-y="2000" d="M60 1460h188l402 -708h4l404 708h182l-506 -842v-618h-168v618zM468 1580l226 334h204l-280 -334h-150z" />
<glyph unicode="&#xde;" horiz-adv-x="1220" vert-adv-y="2000" d="M170 0v1460h160v-234q114 14 246 14q272 0 413 -115t141 -329q0 -232 -142 -352t-412 -120q-132 0 -246 12v-336h-160zM330 468q116 -16 234 -16q198 0 303 86t105 246t-103 243t-305 83q-110 0 -234 -20v-622z" />
<glyph unicode="&#xdf;" horiz-adv-x="1188" vert-adv-y="2000" d="M160 0v1086q0 232 101 333t339 101q210 0 319 -71t109 -203q0 -66 -35 -140t-78 -126t-78 -101t-35 -69q0 -22 48 -74t105 -110t105 -145t48 -171q0 -330 -380 -330q-126 0 -282 40v144q148 -48 262 -48q240 0 240 218q0 60 -48 133t-107 129t-107 116t-48 98 q0 40 60 113t120 158t60 153q0 156 -270 156q-166 0 -227 -63t-61 -237v-1090h-160z" />
<glyph unicode="&#xe0;" horiz-adv-x="1068" vert-adv-y="2000" d="M100 294q0 166 132 266t422 100h120v54q0 122 -56 171t-198 49q-168 0 -362 -76v138q180 64 362 64q230 0 319 -84t89 -302v-674h-144l-4 178h-4q-120 -198 -368 -198q-136 0 -222 86t-86 228zM226 1514h204l226 -334h-150zM254 306q0 -90 51 -145t135 -55q144 0 239 96 t95 254v94h-120q-198 0 -299 -64t-101 -180z" />
<glyph unicode="&#xe1;" horiz-adv-x="1068" vert-adv-y="2000" d="M100 294q0 166 132 266t422 100h120v54q0 122 -56 171t-198 49q-168 0 -362 -76v138q180 64 362 64q230 0 319 -84t89 -302v-674h-144l-4 178h-4q-120 -198 -368 -198q-136 0 -222 86t-86 228zM254 306q0 -90 51 -145t135 -55q144 0 239 96t95 254v94h-120 q-198 0 -299 -64t-101 -180zM412 1180l226 334h204l-280 -334h-150z" />
<glyph unicode="&#xe2;" horiz-adv-x="1068" vert-adv-y="2000" d="M100 294q0 166 132 266t422 100h120v54q0 122 -56 171t-198 49q-168 0 -362 -76v138q180 64 362 64q230 0 319 -84t89 -302v-674h-144l-4 178h-4q-120 -198 -368 -198q-136 0 -222 86t-86 228zM150 1180l274 334h220l274 -334h-182l-200 264h-4l-200 -264h-182zM254 306 q0 -90 51 -145t135 -55q144 0 239 96t95 254v94h-120q-198 0 -299 -64t-101 -180z" />
<glyph unicode="&#xe3;" horiz-adv-x="1068" vert-adv-y="2000" d="M100 294q0 166 132 266t422 100h120v54q0 122 -56 171t-198 49q-168 0 -362 -76v138q180 64 362 64q230 0 319 -84t89 -302v-674h-144l-4 178h-4q-120 -198 -368 -198q-136 0 -222 86t-86 228zM164 1180q0 280 164 280q92 0 226 -90q112 -74 156 -74q68 0 68 144h126 q0 -260 -164 -260q-90 0 -228 92q-106 72 -154 72q-68 0 -68 -164h-126zM254 306q0 -90 51 -145t135 -55q144 0 239 96t95 254v94h-120q-198 0 -299 -64t-101 -180z" />
<glyph unicode="&#xe4;" horiz-adv-x="1068" vert-adv-y="2000" d="M100 294q0 166 132 266t422 100h120v54q0 122 -56 171t-198 49q-168 0 -362 -76v138q180 64 362 64q230 0 319 -84t89 -302v-674h-144l-4 178h-4q-120 -198 -368 -198q-136 0 -222 86t-86 228zM254 306q0 -90 51 -145t135 -55q144 0 239 96t95 254v94h-120 q-198 0 -299 -64t-101 -180zM260 1220v254h148v-254h-148zM660 1220v254h148v-254h-148z" />
<glyph unicode="&#xe5;" horiz-adv-x="1068" vert-adv-y="2000" d="M100 294q0 166 132 266t422 100h120v54q0 122 -56 171t-198 49q-168 0 -362 -76v138q180 64 362 64q230 0 319 -84t89 -302v-674h-144l-4 178h-4q-120 -198 -368 -198q-136 0 -222 86t-86 228zM254 306q0 -90 51 -145t135 -55q144 0 239 96t95 254v94h-120 q-198 0 -299 -64t-101 -180zM288 1360q0 102 72 174t174 72t174 -72t72 -174t-72 -174t-174 -72t-174 72t-72 174zM380 1360q0 -64 46 -109t108 -45t108 45t46 109t-46 109t-108 45t-108 -45t-46 -109z" />
<glyph unicode="&#xe6;" horiz-adv-x="1730" vert-adv-y="2000" d="M100 294q0 166 132 266t422 100h120v60q0 122 -56 171t-198 49q-176 0 -364 -74v130q180 64 364 64q150 0 237 -34t127 -112q116 146 340 146q416 0 416 -530q0 -18 -4 -54h-708q12 -380 346 -380q136 0 296 66v-132q-164 -50 -310 -50q-294 0 -414 214 q-118 -214 -400 -214q-162 0 -254 84t-92 230zM254 306q0 -94 57 -147t155 -53q130 0 219 95t89 245v74v30h-120q-198 0 -299 -64t-101 -180zM928 594h562q-6 350 -266 350q-276 0 -296 -350z" />
<glyph unicode="&#xe7;" horiz-adv-x="986" vert-adv-y="2000" d="M80 520q0 264 123 402t347 138q150 0 286 -36v-136q-136 48 -276 48q-320 0 -320 -416q0 -216 84 -316t256 -100q142 0 266 54v-134q-102 -30 -170 -38q70 -90 70 -190q0 -104 -85 -170t-265 -66q-114 0 -220 42v128q96 -50 206 -50q220 0 220 152q0 80 -64 148 q-222 10 -340 147t-118 393z" />
<glyph unicode="&#xe8;" horiz-adv-x="1050" vert-adv-y="2000" d="M80 520q0 278 123 409t337 131q420 0 420 -526q0 -18 -4 -54h-722q12 -384 362 -384q136 0 296 66v-132q-164 -50 -310 -50q-246 0 -374 135t-128 405zM234 598h576q-6 346 -270 346q-286 0 -306 -346zM288 1514h204l226 -334h-150z" />
<glyph unicode="&#xe9;" horiz-adv-x="1050" vert-adv-y="2000" d="M80 520q0 278 123 409t337 131q420 0 420 -526q0 -18 -4 -54h-722q12 -384 362 -384q136 0 296 66v-132q-164 -50 -310 -50q-246 0 -374 135t-128 405zM234 598h576q-6 346 -270 346q-286 0 -306 -346zM354 1180l226 334h204l-280 -334h-150z" />
<glyph unicode="&#xea;" horiz-adv-x="1050" vert-adv-y="2000" d="M80 520q0 278 123 409t337 131q420 0 420 -526q0 -18 -4 -54h-722q12 -384 362 -384q136 0 296 66v-132q-164 -50 -310 -50q-246 0 -374 135t-128 405zM152 1180l274 334h220l274 -334h-182l-200 264h-4l-200 -264h-182zM234 598h576q-6 346 -270 346q-286 0 -306 -346z " />
<glyph unicode="&#xeb;" horiz-adv-x="1050" vert-adv-y="2000" d="M80 520q0 278 123 409t337 131q420 0 420 -526q0 -18 -4 -54h-722q12 -384 362 -384q136 0 296 66v-132q-164 -50 -310 -50q-246 0 -374 135t-128 405zM234 598h576q-6 346 -270 346q-286 0 -306 -346zM262 1220v254h148v-254h-148zM662 1220v254h148v-254h-148z" />
<glyph unicode="&#xec;" horiz-adv-x="638" vert-adv-y="2000" d="M-24 1514h202l228 -334h-150zM248 0v1040h160v-1040h-160z" />
<glyph unicode="&#xed;" horiz-adv-x="638" vert-adv-y="2000" d="M230 0v1040h160v-1040h-160zM232 1180l228 334h202l-280 -334h-150z" />
<glyph unicode="&#xee;" horiz-adv-x="616" vert-adv-y="2000" d="M-76 1180l274 334h220l274 -334h-182l-200 264h-4l-200 -264h-182zM228 0v1040h160v-1040h-160z" />
<glyph unicode="&#xef;" horiz-adv-x="616" vert-adv-y="2000" d="M34 1220v254h148v-254h-148zM228 0v1040h160v-1040h-160zM434 1220v254h148v-254h-148z" />
<glyph unicode="&#xf0;" horiz-adv-x="1120" vert-adv-y="2000" d="M90 520q0 238 128 382t342 144q142 0 242 -90l2 2q-54 156 -174 256l-368 -160l-40 100l304 130q-122 64 -276 76v120q242 -12 420 -134l286 124l40 -98l-232 -102q266 -256 266 -750q0 -250 -129 -395t-341 -145q-206 0 -338 146t-132 394zM240 520q0 -196 92 -308 t228 -112q144 0 232 110t88 310q0 196 -85 305t-235 109t-235 -109t-85 -305z" />
<glyph unicode="&#xf1;" horiz-adv-x="1130" vert-adv-y="2000" d="M150 0v1040h144l2 -156h4q144 176 344 176q182 0 264 -102t82 -338v-620h-150v600q0 198 -54 269t-182 71q-104 0 -202 -97t-98 -199v-644h-154zM190 1180q0 280 164 280q92 0 226 -90q112 -74 156 -74q68 0 68 144h126q0 -260 -164 -260q-90 0 -228 92q-106 72 -154 72 q-68 0 -68 -164h-126z" />
<glyph unicode="&#xf2;" horiz-adv-x="1112" vert-adv-y="2000" d="M80 520q0 256 126 398t350 142t350 -142t126 -398t-126 -398t-350 -142t-350 142t-126 398zM236 520q0 -420 320 -420t320 420t-320 420t-320 -420zM248 1514h204l226 -334h-150z" />
<glyph unicode="&#xf3;" horiz-adv-x="1112" vert-adv-y="2000" d="M80 520q0 256 126 398t350 142t350 -142t126 -398t-126 -398t-350 -142t-350 142t-126 398zM236 520q0 -420 320 -420t320 420t-320 420t-320 -420zM434 1180l226 334h204l-280 -334h-150z" />
<glyph unicode="&#xf4;" horiz-adv-x="1112" vert-adv-y="2000" d="M80 520q0 256 126 398t350 142t350 -142t126 -398t-126 -398t-350 -142t-350 142t-126 398zM172 1180l274 334h220l274 -334h-182l-200 264h-4l-200 -264h-182zM236 520q0 -420 320 -420t320 420t-320 420t-320 -420z" />
<glyph unicode="&#xf5;" horiz-adv-x="1112" vert-adv-y="2000" d="M80 520q0 256 126 398t350 142t350 -142t126 -398t-126 -398t-350 -142t-350 142t-126 398zM186 1180q0 280 164 280q90 0 226 -90q112 -74 156 -74q68 0 68 144h126q0 -260 -164 -260q-90 0 -228 92q-106 72 -154 72q-68 0 -68 -164h-126zM236 520q0 -420 320 -420 t320 420t-320 420t-320 -420z" />
<glyph unicode="&#xf6;" horiz-adv-x="1112" vert-adv-y="2000" d="M80 520q0 256 126 398t350 142t350 -142t126 -398t-126 -398t-350 -142t-350 142t-126 398zM236 520q0 -420 320 -420t320 420t-320 420t-320 -420zM282 1220v254h148v-254h-148zM682 1220v254h148v-254h-148z" />
<glyph unicode="&#xf7;" horiz-adv-x="1468" vert-adv-y="2000" d="M160 516v128h1148v-128h-1148zM648 0v274h172v-274h-172zM648 886v274h172v-274h-172z" />
<glyph unicode="&#xf8;" horiz-adv-x="1132" vert-adv-y="2000" d="M90 520q0 256 126 398t350 142q158 0 270 -72l74 104l86 -64l-80 -110q126 -142 126 -398t-126 -398t-350 -142q-158 0 -270 72l-74 -104l-86 64l78 110q-124 140 -124 398zM246 520q0 -176 56 -276l456 636q-74 60 -192 60q-320 0 -320 -420zM374 160q74 -60 192 -60 q320 0 320 420q0 176 -56 276z" />
<glyph unicode="&#xf9;" horiz-adv-x="1120" vert-adv-y="2000" d="M140 394v646h150v-626q0 -180 54 -247t172 -67q108 0 204 93t96 203v644h154v-1040h-144l-2 156h-4q-138 -176 -344 -176q-174 0 -255 96t-81 318zM322 1514h204l226 -334h-150z" />
<glyph unicode="&#xfa;" horiz-adv-x="1120" vert-adv-y="2000" d="M140 394v646h150v-626q0 -180 54 -247t172 -67q108 0 204 93t96 203v644h154v-1040h-144l-2 156h-4q-138 -176 -344 -176q-174 0 -255 96t-81 318zM388 1180l226 334h204l-280 -334h-150z" />
<glyph unicode="&#xfb;" horiz-adv-x="1120" vert-adv-y="2000" d="M140 394v646h150v-626q0 -180 54 -247t172 -67q108 0 204 93t96 203v644h154v-1040h-144l-2 156h-4q-138 -176 -344 -176q-174 0 -255 96t-81 318zM186 1180l274 334h220l274 -334h-182l-200 264h-4l-200 -264h-182z" />
<glyph unicode="&#xfc;" horiz-adv-x="1120" vert-adv-y="2000" d="M140 394v646h150v-626q0 -180 54 -247t172 -67q108 0 204 93t96 203v644h154v-1040h-144l-2 156h-4q-138 -176 -344 -176q-174 0 -255 96t-81 318zM296 1220v254h148v-254h-148zM696 1220v254h148v-254h-148z" />
<glyph unicode="&#xfd;" horiz-adv-x="1094" vert-adv-y="2000" d="M70 1040h162l300 -856h4l332 856h156l-610 -1480h-156l196 448zM362 1180l226 334h204l-280 -334h-150z" />
<glyph unicode="&#xfe;" horiz-adv-x="1146" vert-adv-y="2000" d="M150 -440v1940h154v-596h4q128 156 328 156q194 0 307 -141t113 -399q0 -250 -117 -395t-303 -145q-212 0 -338 156h-4v-576h-144zM304 366q0 -104 92 -185t208 -81q142 0 221 106t79 314q0 420 -300 420q-118 0 -209 -82t-91 -184v-308z" />
<glyph unicode="&#xff;" horiz-adv-x="1094" vert-adv-y="2000" d="M70 1040h162l300 -856h4l332 856h156l-610 -1480h-156l196 448zM270 1220v254h148v-254h-148zM670 1220v254h148v-254h-148z" />
<glyph unicode="&#x152;" horiz-adv-x="1670" vert-adv-y="2000" d="M80 730q0 338 182 544t468 206q98 0 178 -20h612v-134h-560v-476h520v-128h-520v-588h560v-134h-612q-80 -20 -178 -20q-286 0 -468 206t-182 544zM242 730q0 -278 137 -447t351 -169q52 0 76 4v1224q-24 4 -76 4q-214 0 -351 -169t-137 -447z" />
<glyph unicode="&#x153;" horiz-adv-x="1834" vert-adv-y="2000" d="M80 520q0 246 129 393t339 147q256 0 380 -224q118 224 374 224q212 0 327 -136t115 -394q0 -46 -2 -66h-742q4 -170 106 -269t276 -99q136 0 296 66v-132q-164 -50 -310 -50q-304 0 -436 232q-58 -112 -158 -172t-226 -60q-210 0 -339 147t-129 393zM230 520 q0 -198 87 -309t231 -111q136 0 223 112t87 308t-87 308t-223 112q-144 0 -231 -111t-87 -309zM1000 580h602q-2 174 -81 268t-219 94q-132 0 -215 -96t-87 -266z" />
<glyph unicode="&#x178;" horiz-adv-x="1300" vert-adv-y="2000" d="M60 1460h188l402 -708h4l404 708h182l-506 -842v-618h-168v618zM376 1620v254h148v-254h-148zM776 1620v254h148v-254h-148z" />
<glyph unicode="&#x2c6;" horiz-adv-x="928" vert-adv-y="2000" d="M80 1180l274 334h220l274 -334h-182l-200 264h-4l-200 -264h-182z" />
<glyph unicode="&#x2dc;" horiz-adv-x="980" vert-adv-y="2000" d="M120 1180q0 280 164 280q92 0 226 -90q110 -74 156 -74q68 0 68 144h126q0 -260 -164 -260q-90 0 -228 92q-106 72 -154 72q-68 0 -68 -164h-126z" />
<glyph unicode="&#x2000;" horiz-adv-x="1013" vert-adv-y="0" />
<glyph unicode="&#x2001;" horiz-adv-x="2026" vert-adv-y="0" />
<glyph unicode="&#x2002;" horiz-adv-x="1013" vert-adv-y="0" />
<glyph unicode="&#x2003;" horiz-adv-x="2026" vert-adv-y="0" />
<glyph unicode="&#x2004;" horiz-adv-x="675" vert-adv-y="0" />
<glyph unicode="&#x2005;" horiz-adv-x="506" vert-adv-y="0" />
<glyph unicode="&#x2006;" horiz-adv-x="337" vert-adv-y="0" />
<glyph unicode="&#x2007;" horiz-adv-x="337" vert-adv-y="0" />
<glyph unicode="&#x2008;" horiz-adv-x="253" vert-adv-y="0" />
<glyph unicode="&#x2009;" horiz-adv-x="405" vert-adv-y="0" />
<glyph unicode="&#x200a;" horiz-adv-x="112" vert-adv-y="0" />
<glyph unicode="&#x2010;" horiz-adv-x="932" vert-adv-y="2000" d="M160 510v126h612v-126h-612z" />
<glyph unicode="&#x2011;" horiz-adv-x="932" vert-adv-y="2000" d="M160 510v126h612v-126h-612z" />
<glyph unicode="&#x2012;" horiz-adv-x="932" vert-adv-y="2000" d="M160 510v126h612v-126h-612z" />
<glyph unicode="&#x2013;" horiz-adv-x="944" vert-adv-y="2000" d="M-4 526v108h952v-108h-952z" />
<glyph unicode="&#x2014;" horiz-adv-x="1892" vert-adv-y="2000" d="M-4 526v108h1900v-108h-1900z" />
<glyph unicode="&#x2018;" horiz-adv-x="576" vert-adv-y="2000" d="M90 1046l200 494h146l-146 -494h-200z" />
<glyph unicode="&#x2019;" horiz-adv-x="576" vert-adv-y="2000" d="M140 1046l146 494h200l-200 -494h-146z" />
<glyph unicode="&#x201a;" horiz-adv-x="608" vert-adv-y="2000" d="M120 -220l146 494h202l-200 -494h-148z" />
<glyph unicode="&#x201c;" horiz-adv-x="918" vert-adv-y="2000" d="M80 1046l200 494h134l-146 -494h-188zM454 1046l200 494h134l-148 -494h-186z" />
<glyph unicode="&#x201d;" horiz-adv-x="918" vert-adv-y="2000" d="M130 1046l148 494h186l-200 -494h-134zM504 1046l146 494h188l-200 -494h-134z" />
<glyph unicode="&#x201e;" horiz-adv-x="948" vert-adv-y="2000" d="M110 -220l148 494h186l-200 -494h-134zM484 -220l146 494h188l-200 -494h-134z" />
<glyph unicode="&#x2022;" horiz-adv-x="912" vert-adv-y="2000" d="M250 730q0 86 60 146t146 60t146 -60t60 -146t-60 -146t-146 -60t-146 60t-60 146z" />
<glyph unicode="&#x2026;" horiz-adv-x="2000" vert-adv-y="2000" d="M240 580v280h188v-280h-188zM906 580v280h188v-280h-188zM1572 580v280h188v-280h-188z" />
<glyph unicode="&#x202f;" horiz-adv-x="405" vert-adv-y="0" />
<glyph unicode="&#x2039;" horiz-adv-x="780" vert-adv-y="2000" d="M130 580l320 426h160l-324 -426l324 -426h-160z" />
<glyph unicode="&#x203a;" horiz-adv-x="780" vert-adv-y="2000" d="M170 154l324 426l-324 426h160l320 -426l-320 -426h-160z" />
<glyph unicode="&#x205f;" horiz-adv-x="506" vert-adv-y="0" />
<glyph unicode="&#x20ac;" horiz-adv-x="1368" vert-adv-y="2000" d="M100 514v106h156q-6 54 -6 110q0 2 6 110h-156v106h170q46 254 198 394t374 140q182 0 346 -50v-142q-166 58 -334 58q-156 0 -266 -105t-152 -295h684v-106h-702q-4 -36 -4 -110t4 -110h702v-106h-684q44 -188 157 -294t267 -106q172 0 338 58v-142q-172 -50 -350 -50 q-216 0 -373 140t-205 394h-170z" />
<glyph unicode="&#x2122;" horiz-adv-x="1732" vert-adv-y="2000" d="M120 1370v90h648v-90h-270v-640h-108v640h-270zM862 730v730h110l238 -432h2l238 432h112v-730h-104v552h-2l-196 -346h-98l-196 346h-2v-552h-102z" />
<glyph unicode="&#x25fc;" horiz-adv-x="1040" vert-adv-y="2080" d="M0 0v1040h1040v-1040h-1040z" />
<glyph unicode="&#xfb01;" horiz-adv-x="1248" vert-adv-y="2000" d="M110 880v120h208v114q0 192 79 279t247 87q90 0 180 -30v-122q-80 32 -154 32q-106 0 -149 -52t-43 -188v-120h610v-1000h-160v880h-450v-880h-160v880h-208zM928 1280v220h160v-220h-160z" />
<glyph unicode="&#xfb02;" horiz-adv-x="1248" vert-adv-y="2000" d="M110 880v120h208v114q0 194 88 280t292 86q194 0 390 -54v-1426h-160v1332q-112 28 -204 28q-142 0 -194 -52t-52 -188v-120h336v-120h-336v-880h-160v880h-208z" />
<glyph unicode="&#xfb03;" horiz-adv-x="1842" vert-adv-y="2000" d="M110 880v120h206v114q0 192 79 279t247 87q90 0 180 -30v-122q-80 32 -152 32q-106 0 -150 -53t-44 -187v-120h444v114q0 192 79 279t247 87q90 0 180 -30v-122q-80 32 -154 32q-106 0 -149 -52t-43 -188v-120h602v-1000h-160v880h-442v-880h-160v880h-444v-880h-160v880 h-206zM1522 1280v220h160v-220h-160z" />
<glyph unicode="&#xfb04;" horiz-adv-x="1842" vert-adv-y="2000" d="M110 880v120h206v114q0 192 79 279t247 87q90 0 180 -30v-122q-80 32 -152 32q-106 0 -150 -53t-44 -187v-120h444v114q0 194 88 280t292 86q190 0 382 -54v-1426h-160v1332q-100 28 -196 28q-142 0 -194 -52t-52 -188v-120h330v-120h-330v-880h-160v880h-444v-880h-160 v880h-206z" />
</font>
</defs>
</svg>
